<?xml version="1.0" standalone="no"?><!DOCTYPE svg PUBLIC "-//W3C//DTD SVG 1.1//EN" "http://www.w3.org/Graphics/SVG/1.1/DTD/svg11.dtd"><svg t="1628661813498" class="icon" viewBox="0 0 1024 1024" version="1.1" xmlns="http://www.w3.org/2000/svg" p-id="3062" xmlns:xlink="http://www.w3.org/1999/xlink" width="200" height="200"><defs><style type="text/css"></style></defs><path d="M352.8 606.88a37.92 37.92 0 0 0-37.6 32L290.4 812.8a19.2 19.2 0 0 0 16 21.44h142.72a19.04 19.04 0 0 0 19.2-18.24v-2.56L443.36 640a37.92 37.92 0 0 0-37.6-32z" fill="#28D900" opacity=".15" p-id="3063"></path><path d="M606.88 304h246.4a19.04 19.04 0 1 1 0 37.92h-246.4a19.04 19.04 0 1 1 0-37.92z m94.72 94.88h151.68a19.04 19.04 0 1 1 0 37.92H701.6a19.04 19.04 0 0 1 0-37.92zM352.8 568.96h52.96a75.68 75.68 0 0 1 75.04 65.12l24.8 173.28a56.8 56.8 0 0 1-48 64 43.84 43.84 0 0 1-8 0H309.28A56.96 56.96 0 0 1 252.32 816a44.96 44.96 0 0 1 0-8l24.64-173.28a76 76 0 0 1 75.84-65.76z m0 37.92a37.92 37.92 0 0 0-37.6 32L290.4 812.8a19.2 19.2 0 0 0 16 21.44h142.72a19.04 19.04 0 0 0 19.2-18.24v-2.56L443.36 640a37.92 37.92 0 0 0-37.6-32zM189.6 720a19.04 19.04 0 1 1 0 37.92h-56.8a56.96 56.96 0 0 1-56.96-56.96v-454.4a56.96 56.96 0 0 1 56.96-56.96h758.4a56.96 56.96 0 0 1 56.96 56.96V701.6a56.96 56.96 0 0 1-56.96 56.96H701.6a19.04 19.04 0 0 1 0-37.92h189.6a19.04 19.04 0 0 0 19.04-19.04V246.56a19.04 19.04 0 0 0-19.04-19.04H132.8a19.04 19.04 0 0 0-19.04 19.04V701.6A19.04 19.04 0 0 0 132.8 720z m345.76 60.8a18.88 18.88 0 0 1-27.84-25.6L725.6 518.08A19.04 19.04 0 1 1 753.44 544zM379.2 549.92a113.76 113.76 0 0 1 0-227.52 113.76 113.76 0 0 1 0 227.52z m0-37.92a75.84 75.84 0 1 0-75.2-75.84A75.84 75.84 0 0 0 379.2 512z" fill="#28D900" p-id="3064"></path></svg>