<?xml version="1.0" standalone="no"?><!DOCTYPE svg PUBLIC "-//W3C//DTD SVG 1.1//EN" "http://www.w3.org/Graphics/SVG/1.1/DTD/svg11.dtd"><svg t="1628661072333" class="icon" viewBox="0 0 1024 1024" version="1.1" xmlns="http://www.w3.org/2000/svg" p-id="2513" xmlns:xlink="http://www.w3.org/1999/xlink" width="200" height="200"><defs><style type="text/css"></style></defs><path d="M748.96 910.24a180.16 180.16 0 1 0-180-180.16 180.16 180.16 0 0 0 180 180.16z" fill="#28D900" opacity=".15" p-id="2514"></path><path d="M66.4 294.24a18.88 18.88 0 0 1 8.32-16L253.76 91.2a18.56 18.56 0 0 1 13.76-5.92H695.2a91.84 91.84 0 0 1 91.84 91.52v314.4a252.64 252.64 0 0 0-38.08-2.88V176.8a53.6 53.6 0 0 0-53.76-53.6H293.92v170.72a19.04 19.04 0 0 1-18.88 19.04H104.32V848a53.76 53.76 0 0 0 53.92 52.8h419.52a250.56 250.56 0 0 0 48.96 37.92H158.24A91.68 91.68 0 0 1 66.4 848V294.24zM256 144L130.4 275.04H256V144z m492.96 804.16a218.08 218.08 0 1 1 218.08-218.08 217.92 217.92 0 0 1-218.08 218.08z m0-37.92a180.16 180.16 0 1 0-180-180.16 180.16 180.16 0 0 0 180 180.16z m-94.72-151.68a28.48 28.48 0 1 1 28.48-28.48 28.48 28.48 0 0 1-28.48 28.48z m94.72 0a28.48 28.48 0 1 1 28.48-28.48 28.48 28.48 0 0 1-28.48 28.48z m94.88 0a28.48 28.48 0 1 1 28.48-28.48 28.48 28.48 0 0 1-28.48 28.48zM426.72 350.88a19.04 19.04 0 1 1 0-37.92H560a19.04 19.04 0 1 1 0 37.92z m-208 132.64a19.04 19.04 0 1 1 0-37.92H560a19.04 19.04 0 1 1 0 37.92z m0 151.68a19.04 19.04 0 0 1 0-37.92h264.8a19.04 19.04 0 1 1 0 37.92z" fill="#28D900" p-id="2515"></path></svg>