<?xml version="1.0" standalone="no"?><!DOCTYPE svg PUBLIC "-//W3C//DTD SVG 1.1//EN" "http://www.w3.org/Graphics/SVG/1.1/DTD/svg11.dtd"><svg t="1628660758851" class="icon" viewBox="0 0 1024 1024" version="1.1" xmlns="http://www.w3.org/2000/svg" p-id="2102" xmlns:xlink="http://www.w3.org/1999/xlink" width="200" height="200"><defs><style type="text/css"></style></defs><path d="M512.8 720a37.44 37.44 0 0 1-25.6-10.4l-144-154.24a33.44 33.44 0 0 1 25.76-56.48H440V396.64a34.4 34.4 0 0 1 34.24-34.4h76.32a34.4 34.4 0 0 1 34.24 34.4v102.88H656A34.56 34.56 0 0 1 682.08 556l-144 154.24A35.04 35.04 0 0 1 512.8 720z" fill="#28D900" opacity=".15" p-id="2103"></path><path d="M132.8 771.2a37.92 37.92 0 0 0 37.92 37.92h682.56a37.92 37.92 0 0 0 37.92-37.92v-480a13.44 13.44 0 0 0-14.24-14.24H532.8a87.52 87.52 0 0 1-63.2-26.72l-55.68-55.52-2.4-2.72a10.08 10.08 0 0 0-7.36-2.08H147.04a13.28 13.28 0 0 0-14.24 14.24z m-37.92 0V203.84a51.2 51.2 0 0 1 52.16-52.16h257.12a48 48 0 0 1 36.64 16l55.2 55.36a49.92 49.92 0 0 0 36.48 16h344.48a51.2 51.2 0 0 1 52.16 52.16v480a75.84 75.84 0 0 1-75.84 75.84H170.72a75.84 75.84 0 0 1-75.84-75.84zM648 537.44h-64a38.08 38.08 0 0 1-37.92-37.92V400h-68.32v99.36a38.08 38.08 0 0 1-37.92 37.92H377.6l135.2 144 135.2-144zM512.8 720a37.44 37.44 0 0 1-25.6-10.4l-144-154.24a33.44 33.44 0 0 1 25.76-56.48H440V396.64a34.4 34.4 0 0 1 34.24-34.4h76.32a34.4 34.4 0 0 1 34.24 34.4v102.88H656A34.56 34.56 0 0 1 682.08 556l-144 154.24A35.04 35.04 0 0 1 512.8 720z" fill="#28D900" p-id="2104"></path></svg>