<?xml version="1.0" standalone="no"?><!DOCTYPE svg PUBLIC "-//W3C//DTD SVG 1.1//EN" "http://www.w3.org/Graphics/SVG/1.1/DTD/svg11.dtd"><svg t="1628661659926" class="icon" viewBox="0 0 1024 1024" version="1.1" xmlns="http://www.w3.org/2000/svg" p-id="2927" xmlns:xlink="http://www.w3.org/1999/xlink" width="200" height="200"><defs><style type="text/css"></style></defs><path d="M151.68 151.68H891.2a33.44 33.44 0 0 1 37.92 37.92v189.6a33.44 33.44 0 0 1-37.92 37.92H151.68a33.44 33.44 0 0 1-37.92-37.92V189.6a33.44 33.44 0 0 1 37.92-37.92z" fill="#28D900" opacity=".15" p-id="2928"></path><path d="M903.68 398.24V202.08a37.92 37.92 0 0 0-37.92-37.92h-701.6a37.92 37.92 0 0 0-37.92 37.92v196.16z m0 37.92H126.24v391.68a37.92 37.92 0 0 0 37.92 37.92h701.6a37.92 37.92 0 0 0 37.92-37.92zM745.44 126.24h120.32a75.84 75.84 0 0 1 75.84 75.84v625.76a75.84 75.84 0 0 1-75.84 75.84h-701.6a75.84 75.84 0 0 1-75.84-75.84V202.08a75.84 75.84 0 0 1 75.84-75.84H272V88.32a19.04 19.04 0 1 1 37.92 0v37.92h397.6V88.32a18.88 18.88 0 0 1 18.88-19.04 19.04 19.04 0 0 1 19.04 18.88zM226.56 774.72a19.04 19.04 0 0 1 0-37.92h192a19.04 19.04 0 1 1 0 37.92h-192z m0-183.04a19.04 19.04 0 0 1 0-37.92h512.96a19.04 19.04 0 1 1 0 37.92H226.56z" fill="#28D900" p-id="2929"></path></svg>