<?xml version="1.0" standalone="no"?><!DOCTYPE svg PUBLIC "-//W3C//DTD SVG 1.1//EN" "http://www.w3.org/Graphics/SVG/1.1/DTD/svg11.dtd"><svg t="1628660961626" class="icon" viewBox="0 0 1024 1024" version="1.1" xmlns="http://www.w3.org/2000/svg" p-id="2376" xmlns:xlink="http://www.w3.org/1999/xlink" width="200" height="200"><defs><style type="text/css"></style></defs><path d="M188.48 240V128H790.4v208H417.6l-41.76-83.84z" fill="#28D900" opacity=".15" p-id="2377"></path><path d="M427.84 322.4H834.4a94.72 94.72 0 0 1 94.72 94.72V834.4a94.72 94.72 0 0 1-94.72 94.72H189.6a94.72 94.72 0 0 1-94.72-94.72v-512a94.88 94.88 0 0 1 94.72-94.88h185.76a18.88 18.88 0 0 1 17.44 11.68l35.04 83.2z m-65.12-56.96H189.6a56.8 56.8 0 0 0-56.8 56.96v512a56.8 56.8 0 0 0 56.8 56.8h644.8a56.8 56.8 0 0 0 56.8-56.8V417.12a56.8 56.8 0 0 0-56.8-56.8H416a18.88 18.88 0 0 1-17.44-11.68l-35.2-83.2zM208 240a19.04 19.04 0 0 1-37.92 0v-73.6a56.8 56.8 0 0 1 56.8-56.96H752a56.96 56.96 0 0 1 56.96 56.96v91.84a19.04 19.04 0 0 1-37.92 0V166.4A19.04 19.04 0 0 0 752 147.36H226.4A18.88 18.88 0 0 0 208 166.4z m341.28 235.04A133.28 133.28 0 0 0 401.6 448a17.76 17.76 0 0 0-9.28 23.52 16 16 0 0 0 3.84 5.44l46.24 46.24a24 24 0 1 1-33.92 33.92l-46.24-46.24a17.92 17.92 0 0 0-25.44 0 17.28 17.28 0 0 0-3.68 5.44A132.96 132.96 0 0 0 496.8 695.2l116 115.84a59.84 59.84 0 1 0 84.64-84.48l-116-115.84a132.64 132.64 0 0 0-32-135.68zM448 472.64a97.28 97.28 0 0 1 108.64 84 98.72 98.72 0 0 1-8.32 51.36 17.76 17.76 0 0 0 3.68 19.84L676.32 752a24 24 0 0 1-34.08 33.92l-124.16-124a17.6 17.6 0 0 0-19.84-3.68 97.44 97.44 0 0 1-135.68-100.96l24.64 24.64a59.84 59.84 0 0 0 84.64-84.48L448 472.64z" fill="#28D900" p-id="2378"></path></svg>