<?xml version="1.0" standalone="no"?><!DOCTYPE svg PUBLIC "-//W3C//DTD SVG 1.1//EN" "http://www.w3.org/Graphics/SVG/1.1/DTD/svg11.dtd"><svg t="1628661411624" class="icon" viewBox="0 0 1024 1024" version="1.1" xmlns="http://www.w3.org/2000/svg" p-id="2790" xmlns:xlink="http://www.w3.org/1999/xlink" width="200" height="200"><defs><style type="text/css"></style></defs><path d="M691.2 823.2A304 304 0 0 0 512 275.04v265.44Q663.68 780.32 691.2 823.2z" fill="#28D900" opacity=".15" p-id="2791"></path><path d="M563.52 535.04a14.56 14.56 0 0 1 1.12 2.24l80 166.08a18.88 18.88 0 0 1-29.6 22.4L476.8 604c-0.96 0-1.6-1.6-2.4-2.4a56.96 56.96 0 0 1 76.48-84.32A57.6 57.6 0 0 1 564 535.04zM788.8 896a18.88 18.88 0 0 1-24-29.28 398.4 398.4 0 1 0-505.44 0A19.04 19.04 0 0 1 235.2 896a436.16 436.16 0 1 1 553.6 0z m-72.16-68.96a19.2 19.2 0 0 1-26.72-2.72 18.88 18.88 0 0 1 2.72-26.56 284.48 284.48 0 0 0-168.96-504 19.04 19.04 0 0 1 1.6-37.92 322.4 322.4 0 0 1 192 571.2z" fill="#28D900" p-id="2792"></path></svg>