<?xml version="1.0" standalone="no"?><!DOCTYPE svg PUBLIC "-//W3C//DTD SVG 1.1//EN" "http://www.w3.org/Graphics/SVG/1.1/DTD/svg11.dtd"><svg t="1628783647935" class="icon" viewBox="0 0 1024 1024" version="1.1" xmlns="http://www.w3.org/2000/svg" p-id="2102" xmlns:xlink="http://www.w3.org/1999/xlink" width="200" height="200"><defs><style type="text/css"></style></defs><path d="M625.76 587.84a37.92 37.92 0 0 0-37.92 37.92V816a37.92 37.92 0 0 0 37.92 37.92h208A37.92 37.92 0 0 0 872.32 816V625.76a37.92 37.92 0 0 0-37.92-37.92z" fill="#28D900" opacity=".15" p-id="2103"></path><path d="M502.56 568.96a66.4 66.4 0 0 1 0-132.8 66.4 66.4 0 0 1 0 132.8z m0-37.92a28.48 28.48 0 0 0 0-56.96 28.48 28.48 0 0 0 0 56.96z m-248.32-8a19.04 19.04 0 0 1 0-38.08h195.52a19.04 19.04 0 1 1 0 38.08z m269.12-73.28a19.04 19.04 0 0 1-37.92 0V215.2a19.04 19.04 0 1 1 37.92 0z m386.88 43.2a19.04 19.04 0 1 1-37.92 0 379.36 379.36 0 1 0-379.36 379.36 19.04 19.04 0 1 1 0 37.92 417.28 417.28 0 1 1 417.28-417.28z m-284.48 94.88a37.92 37.92 0 0 0-37.92 37.92V816a37.92 37.92 0 0 0 37.92 37.92h208A37.92 37.92 0 0 0 872.32 816V625.76a37.92 37.92 0 0 0-37.92-37.92z m0-37.92h208a75.84 75.84 0 0 1 75.84 75.84V816a75.84 75.84 0 0 1-75.84 75.84h-208A75.84 75.84 0 0 1 549.92 816V625.76a75.84 75.84 0 0 1 75.84-75.84zM644.8 701.6H816a19.04 19.04 0 1 0 0-37.92H644.8a19.04 19.04 0 1 0 0 37.92z m0 75.84h113.76a19.04 19.04 0 0 0 0-37.92H644.8a19.04 19.04 0 1 0 0 37.92z" fill="#28D900" p-id="2104"></path></svg>